<?xml version="1.0" encoding="UTF-8"?>
<svg width="400px" height="291px" viewBox="0 0 400 291" version="1.1" xmlns="http://www.w3.org/2000/svg" xmlns:xlink="http://www.w3.org/1999/xlink">
    <!-- Generator: Sketch 52.2 (67145) - http://www.bohemiancoding.com/sketch -->
    <title>Lifelifting_logo_extended</title>
    <desc>Created with Sketch.</desc>
    <defs>
        <polygon id="path-1" points="0.156 0.367 186.1 0.367 186.1 167.506 0.156 167.506"></polygon>
        <polygon id="path-3" points="0.06 0.026 400 0.026 400 78.693 0.06 78.693"></polygon>
    </defs>
    <g id="Logo" stroke="none" stroke-width="1" fill="none" fill-rule="evenodd">
        <g id="Lifelifting_logo_extended">
            <g id="Group-3" transform="translate(107.000000, 0.000000)">
                <mask id="mask-2" fill="white">
                    <use xlink:href="#path-1"></use>
                </mask>
                <g id="Clip-2"></g>
                <path d="M112.97,145.621 C103.905,152.306 96.464,156.614 93.128,158.583 C90.192,156.85 84.066,153.116 76.384,147.795 C73.981,148.676 71.371,149.192 68.603,149.192 C67.214,149.192 65.785,149.05 64.332,148.787 C79.051,159.639 90.579,166.09 91.242,166.459 L93.128,167.506 L95.014,166.459 C95.937,165.945 117.904,153.652 140.23,134.11 C170.668,107.469 186.1,81.4 186.1,56.629 C186.1,31.902 174.251,12.288 154.403,4.164 C135.163,-3.712 113.015,0.866 95.264,16.024 L101.169,21.211 C116.538,8.54 135.284,4.727 151.462,11.346 C168.293,18.235 178.339,35.164 178.339,56.629 C178.339,86.136 152.445,114.189 129.049,133.347 C125.166,136.526 117.01,142.642 112.97,145.621 Z M118.079,138.249 C115.13,138.424 112.52,137.487 110.269,135.433 C102.326,128.189 100.673,110.794 107.261,97.835 C108.227,95.936 109.598,91.682 111.668,87.706 C116.719,78.005 123.079,72.171 130.399,70.027 C137.408,67.976 145.44,69.453 154.323,74.419 C149.83,83.551 144.055,89.331 137.124,91.622 C130.6,93.774 123.016,92.922 114.509,89.082 L111.45,96.197 C117.926,99.121 123.946,100.547 129.701,100.547 C133.126,100.547 136.415,100.028 139.559,98.99 C149.445,95.725 157.288,87.449 162.869,74.393 L164.17,71.351 L161.371,69.586 C149.366,62.01 138.208,59.653 128.218,62.58 C118.878,65.315 111.066,72.474 104.941,83.856 C102.579,82.285 100.769,80.539 98.661,78.62 C97.108,77.207 94.669,74.735 93.125,73.2 C85.786,65.903 81.687,57.687 81.817,50.059 C81.941,42.761 85.743,35.529 93.125,28.524 C100.508,35.529 104.309,42.761 104.434,50.059 C104.551,56.937 101.472,63.932 95.266,70.916 C95.266,70.916 96.626,72.44 97.432,73.242 C98.652,74.457 100.255,75.898 100.813,76.336 C108.515,67.767 112.347,58.907 112.194,49.928 C112.035,40.595 107.48,31.341 98.816,23.244 C97.389,21.91 94.465,19.316 92.948,18.085 C72.458,1.461 48.101,-3.726 28.964,4.938 C10.656,13.227 0.156,32.068 0.156,56.629 C0.156,81.4 15.588,107.469 46.026,134.11 C48.847,136.579 51.661,138.931 54.429,141.16 C61.691,146.21 68.824,146.941 74.583,145.112 C77.452,144.141 79.675,142.575 81.218,141.167 C88.354,134.659 91.635,122.586 90.553,110.705 C87.537,110.207 84.65,108.757 82.043,106.491 C84.388,117.391 82.188,129.778 75.987,135.433 C72.453,138.656 68.033,139.13 62.812,136.867 C60.778,135.986 58.922,134.756 57.21,133.349 C33.699,114.039 7.917,86.138 7.917,56.629 C7.917,35.248 16.755,18.985 32.165,12.008 C37.34,9.666 42.985,8.525 48.865,8.525 C61.358,8.525 74.903,13.696 87.214,23.453 C78.645,31.784 74.215,40.672 74.058,49.928 C73.891,59.708 78.451,69.345 87.592,78.622 C86.337,79.851 85.14,80.957 83.855,81.993 L87.043,89.312 C89.307,87.668 91.207,85.946 93.127,84.062 C93.127,84.062 96.663,87.802 101.815,91.059 C99.428,96.994 96.496,100.103 93.333,100.103 C93.31,100.103 93.287,100.103 93.266,100.103 C89.93,100.053 86.445,96.482 84.395,91.088 C83.348,88.335 82.232,85.595 81.312,83.858 C75.369,72.644 67.374,65.315 58.034,62.58 C48.036,59.65 36.887,62.012 24.88,69.586 L22.082,71.351 L23.382,74.393 C28.964,87.449 36.806,95.725 46.693,98.99 C49.838,100.028 53.126,100.547 56.55,100.547 C63.082,100.547 70.112,98.639 77.564,94.879 C77.564,94.879 78.242,96.431 78.828,97.509 C81.495,102.413 85.902,106.297 89.73,107.341 C90.963,107.677 92.288,107.856 93.232,107.863 C93.973,107.868 95.008,107.779 96.086,107.526 C94.051,120.382 97.264,134.077 105.038,141.167 C106.223,142.248 107.806,143.424 109.777,144.352 L118.079,138.249 Z M49.127,91.622 C42.197,89.331 36.421,83.551 31.929,74.419 C40.81,69.454 48.84,67.975 55.853,70.027 C63.172,72.171 69.463,78.113 74.584,87.706 C64.92,92.696 56.37,94.012 49.127,91.622 Z" id="Fill-1" fill="#DB9969" mask="url(#mask-2)"></path>
            </g>
            <polyline id="Fill-4" fill="#DB9969" points="0.256 253.29 0.256 213.338 8.508 213.338 8.508 245.268 29.719 245.268 29.719 253.29 0.256 253.29"></polyline>
            <polygon id="Fill-5" fill="#DB9969" points="39.744 253.29 47.611 253.29 47.611 213.338 39.744 213.338"></polygon>
            <path d="M69.362,253.29 L61.495,253.29 L61.495,213.338 L91.42,213.338 L91.42,221.282 L69.362,221.282 L69.362,231 C71.11,229.972 73.05,229.329 75.184,229.072 C77.318,228.816 79.542,228.687 81.857,228.687 L86.175,228.687 L86.175,236.631 L81.857,236.631 C80.004,236.631 78.475,236.669 77.267,236.746 C76.059,236.824 75.017,236.939 74.143,237.093 C73.268,237.248 72.472,237.478 71.752,237.788 C71.032,238.095 70.235,238.482 69.362,238.944 L69.362,253.29" id="Fill-6" fill="#DB9969"></path>
            <path d="M109.313,245.268 L134.378,245.268 L134.378,253.29 L101.446,253.29 L101.446,213.338 L132.914,213.338 L132.914,221.282 L109.313,221.282 L109.313,231 C111.06,229.972 113.001,229.329 115.135,229.072 C117.269,228.816 119.493,228.687 121.807,228.687 L127.669,228.687 L127.669,236.631 L121.807,236.631 C119.955,236.631 118.426,236.669 117.218,236.746 C116.009,236.824 114.968,236.939 114.093,237.093 C113.219,237.248 112.423,237.478 111.703,237.788 C110.983,238.095 110.186,238.482 109.313,238.944 L109.313,245.268" id="Fill-7" fill="#DB9969"></path>
            <polyline id="Fill-8" fill="#DB9969" points="146.333 253.29 146.333 213.338 154.585 213.338 154.585 245.268 175.796 245.268 175.796 253.29 146.333 253.29"></polyline>
            <polygon id="Fill-9" fill="#DB9969" points="185.822 253.29 193.689 253.29 193.689 213.338 185.822 213.338"></polygon>
            <path d="M215.438,253.29 L207.571,253.29 L207.571,213.338 L237.496,213.338 L237.496,221.282 L215.438,221.282 L215.438,231 C217.185,229.972 219.126,229.329 221.26,229.072 C223.394,228.816 225.618,228.687 227.933,228.687 L232.251,228.687 L232.251,236.631 L227.933,236.631 C226.08,236.631 224.551,236.669 223.343,236.746 C222.135,236.824 221.093,236.939 220.219,237.093 C219.344,237.248 218.548,237.478 217.828,237.788 C217.108,238.095 216.311,238.482 215.438,238.944 L215.438,253.29" id="Fill-10" fill="#DB9969"></path>
            <polyline id="Fill-11" fill="#DB9969" points="265.338 221.282 265.338 253.29 257.394 253.29 257.394 221.282 242.894 221.282 242.894 213.338 280.378 213.338 280.378 221.282 265.338 221.282"></polyline>
            <polygon id="Fill-12" fill="#DB9969" points="289.634 253.29 297.501 253.29 297.501 213.338 289.634 213.338"></polygon>
            <polyline id="Fill-13" fill="#DB9969" points="317.861 213.338 342.002 241.104 342.002 213.338 349.946 213.338 349.946 253.29 342.002 253.29 319.789 227.298 319.789 253.29 311.845 253.29 311.845 219.277 307.911 213.338 317.861 213.338"></polyline>
            <g id="Group-17" transform="translate(0.000000, 212.000000)">
                <mask id="mask-4" fill="white">
                    <use xlink:href="#path-3"></use>
                </mask>
                <g id="Clip-15"></g>
                <path d="M400,36.817 C397.79,38.719 395.269,40.147 392.442,41.097 C389.614,42.048 386.658,42.524 383.573,42.524 C380.538,42.524 377.607,42.048 374.78,41.097 C371.951,40.147 369.446,38.758 367.26,36.932 C365.074,35.108 363.326,32.871 362.015,30.221 C360.704,27.575 360.049,24.554 360.049,21.16 C360.049,17.766 360.716,14.759 362.055,12.136 C363.39,9.514 365.165,7.304 367.375,5.503 C369.587,3.704 372.106,2.341 374.935,1.415 C377.762,0.49 380.667,0.026 383.65,0.026 C386.581,0.026 389.435,0.451 392.21,1.3 C394.987,2.149 397.481,3.395 399.692,5.041 L394.37,11.21 C392.879,10.182 391.195,9.397 389.318,8.858 C387.441,8.318 385.551,8.048 383.65,8.048 C381.695,8.048 379.818,8.318 378.019,8.858 C376.218,9.397 374.6,10.208 373.161,11.287 C371.721,12.367 370.577,13.743 369.728,15.413 C368.88,17.085 368.456,19.051 368.456,21.314 C368.456,23.578 368.892,25.53 369.767,27.176 C370.64,28.822 371.797,30.183 373.238,31.263 C374.677,32.344 376.309,33.153 378.134,33.693 C379.959,34.232 381.824,34.502 383.726,34.502 C386.708,34.502 389.512,33.808 392.134,32.421 L392.134,26.018 L388.046,26.018 L384.652,18.537 L400,18.537 L400,36.817" id="Fill-14" fill="#DB9969" mask="url(#mask-4)"></path>
                <path d="M7.398,67.888 C9.516,67.888 11.296,66.169 11.296,63.959 C11.296,61.872 9.516,60.275 7.398,60.275 L3.162,60.275 L3.162,67.888 L7.398,67.888 Z M0,57.789 C0,57.482 0.246,57.206 0.584,57.206 L7.582,57.206 C11.358,57.206 14.458,60.275 14.458,63.989 C14.458,67.795 11.358,70.897 7.612,70.897 L3.162,70.897 L3.162,78.109 C3.162,78.417 2.886,78.693 2.578,78.693 L0.584,78.693 C0.246,78.693 0,78.417 0,78.109 L0,57.789 Z" id="Fill-16" fill="#DB9969" mask="url(#mask-4)"></path>
            </g>
            <path d="M26.027,283.203 C25.935,281.73 24.707,280.471 23.202,280.471 C21.546,280.471 20.256,281.669 20.072,283.203 L26.027,283.203 Z M23.234,278.107 C26.426,278.107 28.882,280.502 28.882,283.786 C28.882,284 28.85,284.4 28.82,284.616 C28.79,284.922 28.544,285.137 28.268,285.137 L19.919,285.137 C20.01,286.794 21.453,288.42 23.448,288.42 C24.553,288.42 25.567,287.929 26.18,287.531 C26.549,287.317 26.763,287.193 27.009,287.5 L27.868,288.666 C28.084,288.911 28.176,289.157 27.808,289.465 C26.917,290.232 25.321,291 23.265,291 C19.55,291 17.095,288.084 17.095,284.553 C17.095,281.085 19.55,278.107 23.234,278.107 Z" id="Fill-18" fill="#DB9969"></path>
            <path d="M33.666,278.998 C33.666,278.69 33.943,278.414 34.25,278.414 L35.14,278.414 C35.355,278.414 35.6,278.598 35.662,278.843 L35.999,279.888 C36.214,279.58 37.35,278.107 39.591,278.107 C40.757,278.107 42.169,278.414 41.832,279.244 L41.095,280.747 C40.941,281.085 40.634,281.146 40.359,281.023 C40.174,280.932 39.714,280.808 39.314,280.808 C37.535,280.808 36.675,282.098 36.552,282.313 L36.552,290.109 C36.552,290.63 36.214,290.693 35.723,290.693 L34.25,290.693 C33.943,290.693 33.666,290.417 33.666,290.109 L33.666,278.998" id="Fill-19" fill="#DB9969"></path>
            <path d="M45.083,289.096 L45.728,287.899 C45.85,287.653 46.188,287.562 46.494,287.746 C46.494,287.746 47.845,288.545 49.35,288.545 C50.27,288.545 50.854,288.175 50.854,287.5 C50.854,286.671 50.178,286.272 48.49,285.505 C46.587,284.676 44.991,283.509 44.991,281.484 C44.991,279.95 46.249,278.107 49.196,278.107 C50.915,278.107 52.205,278.66 52.819,279.059 C53.094,279.244 53.247,279.642 53.064,279.95 L52.511,280.993 C52.358,281.269 51.959,281.361 51.714,281.238 C51.714,281.238 50.363,280.594 49.196,280.594 C48.153,280.594 47.815,281.053 47.815,281.514 C47.815,282.313 48.582,282.651 49.779,283.173 C52.02,284.155 53.861,285.107 53.861,287.408 C53.861,289.312 52.051,291 49.319,291 C47.262,291 45.912,290.264 45.267,289.741 C45.083,289.618 44.96,289.342 45.083,289.096" id="Fill-20" fill="#DB9969"></path>
            <path d="M63.928,288.36 C65.861,288.36 67.396,286.641 67.396,284.523 C67.396,282.466 65.861,280.778 63.928,280.778 C61.994,280.778 60.459,282.466 60.459,284.523 C60.459,286.641 61.994,288.36 63.928,288.36 Z M63.928,278.107 C67.366,278.107 70.128,281.053 70.128,284.523 C70.128,288.053 67.366,291 63.928,291 C60.49,291 57.727,288.053 57.727,284.523 C57.727,281.053 60.49,278.107 63.928,278.107 Z" id="Fill-21" fill="#DB9969"></path>
            <path d="M75.036,278.998 C75.036,278.69 75.312,278.414 75.619,278.414 L76.509,278.414 C76.755,278.414 76.94,278.568 77,278.783 L77.369,279.826 C77.584,279.58 79.21,278.107 81.666,278.107 C85.411,278.107 86.792,280.747 86.792,283.94 L86.792,290.109 C86.792,290.417 86.517,290.693 86.209,290.693 L84.46,290.693 C84.121,290.693 83.876,290.417 83.876,290.109 L83.876,283.817 C83.876,281.852 82.925,280.778 81.329,280.778 C79.395,280.778 78.075,282.19 77.922,282.619 L77.922,290.109 C77.922,290.509 77.737,290.693 77.215,290.693 L75.619,290.693 C75.312,290.693 75.036,290.417 75.036,290.109 L75.036,278.998" id="Fill-22" fill="#DB9969"></path>
            <path d="M96.121,288.82 C97.349,288.82 98.515,287.899 98.883,287.285 L98.883,285.32 C98.699,285.198 97.84,284.829 96.735,284.829 C95.261,284.829 94.249,285.598 94.249,286.856 C94.249,287.961 94.985,288.82 96.121,288.82 Z M96.489,282.927 C97.778,282.927 98.914,283.295 98.914,283.295 C98.945,281.361 98.576,280.594 97.01,280.594 C95.599,280.594 94.218,280.963 93.573,281.146 C93.204,281.238 92.99,280.993 92.898,280.655 L92.653,279.519 C92.56,279.121 92.775,278.906 93.051,278.813 C93.266,278.722 95.016,278.107 97.287,278.107 C101.216,278.107 101.584,280.502 101.584,283.571 L101.584,290.109 C101.584,290.417 101.308,290.693 101.002,290.693 L100.142,290.693 C99.866,290.693 99.743,290.57 99.62,290.264 L99.313,289.434 C98.638,290.079 97.441,291 95.537,291 C93.235,291 91.578,289.434 91.578,286.886 C91.578,284.646 93.358,282.927 96.489,282.927 Z" id="Fill-23" fill="#DB9969"></path>
            <path d="M107.291,269.789 C107.291,269.482 107.567,269.206 107.874,269.206 L109.624,269.206 C109.931,269.206 110.207,269.482 110.207,269.789 L110.207,290.109 C110.207,290.417 109.931,290.693 109.624,290.693 L107.874,290.693 C107.567,290.693 107.291,290.417 107.291,290.109 L107.291,269.789" id="Fill-24" fill="#DB9969"></path>
            <path d="M135.129,268.9 C138.228,268.9 140.469,269.943 142.556,271.754 C142.833,272 142.833,272.368 142.587,272.613 L141.237,273.994 C141.022,274.27 140.745,274.27 140.469,273.994 C139.027,272.736 137.062,271.937 135.159,271.937 C130.769,271.937 127.454,275.621 127.454,279.918 C127.454,284.215 130.8,287.869 135.189,287.869 C137.43,287.869 138.995,286.979 140.469,285.843 C140.745,285.628 141.022,285.659 141.206,285.812 L142.618,287.193 C142.864,287.408 142.802,287.808 142.587,288.022 C140.5,290.048 137.86,291 135.129,291 C128.99,291 124.047,286.119 124.047,279.98 C124.047,273.841 128.99,268.9 135.129,268.9" id="Fill-25" fill="#DB9969"></path>
            <path d="M152.682,288.36 C154.616,288.36 156.151,286.641 156.151,284.523 C156.151,282.466 154.616,280.778 152.682,280.778 C150.748,280.778 149.214,282.466 149.214,284.523 C149.214,286.641 150.748,288.36 152.682,288.36 Z M152.682,278.107 C156.12,278.107 158.883,281.053 158.883,284.523 C158.883,288.053 156.12,291 152.682,291 C149.244,291 146.482,288.053 146.482,284.523 C146.482,281.053 149.244,278.107 152.682,278.107 Z" id="Fill-26" fill="#DB9969"></path>
            <path d="M163.791,278.998 C163.791,278.69 164.067,278.414 164.374,278.414 L165.265,278.414 C165.51,278.414 165.693,278.568 165.756,278.783 L166.124,279.826 C166.338,279.58 167.966,278.107 170.421,278.107 C174.165,278.107 175.547,280.747 175.547,283.94 L175.547,290.109 C175.547,290.417 175.27,290.693 174.964,290.693 L173.214,290.693 C172.877,290.693 172.631,290.417 172.631,290.109 L172.631,283.817 C172.631,281.852 171.679,280.778 170.083,280.778 C168.149,280.778 166.83,282.19 166.676,282.619 L166.676,290.109 C166.676,290.509 166.492,290.693 165.97,290.693 L164.374,290.693 C164.067,290.693 163.791,290.417 163.791,290.109 L163.791,278.998" id="Fill-27" fill="#DB9969"></path>
            <path d="M180.486,289.096 L181.131,287.899 C181.253,287.653 181.591,287.562 181.898,287.746 C181.898,287.746 183.248,288.545 184.753,288.545 C185.673,288.545 186.257,288.175 186.257,287.5 C186.257,286.671 185.581,286.272 183.893,285.505 C181.99,284.676 180.394,283.509 180.394,281.484 C180.394,279.95 181.652,278.107 184.599,278.107 C186.318,278.107 187.608,278.66 188.221,279.059 C188.497,279.244 188.65,279.642 188.467,279.95 L187.914,280.993 C187.761,281.269 187.362,281.361 187.116,281.238 C187.116,281.238 185.766,280.594 184.599,280.594 C183.556,280.594 183.218,281.053 183.218,281.514 C183.218,282.313 183.985,282.651 185.182,283.173 C187.423,284.155 189.264,285.107 189.264,287.408 C189.264,289.312 187.454,291 184.721,291 C182.665,291 181.315,290.264 180.67,289.741 C180.486,289.618 180.364,289.342 180.486,289.096" id="Fill-28" fill="#DB9969"></path>
            <path d="M199.576,278.107 C201.448,278.107 202.892,278.875 204.027,280.286 C204.242,280.562 204.18,280.932 203.904,281.146 L202.892,282.068 C202.523,282.406 202.308,282.16 202.062,281.945 C201.51,281.331 200.619,280.778 199.607,280.778 C197.612,280.778 196.046,282.466 196.046,284.553 C196.046,286.671 197.581,288.36 199.576,288.36 C201.142,288.36 201.786,287.562 202.431,286.947 C202.707,286.671 202.983,286.671 203.26,286.886 L204.088,287.562 C204.395,287.808 204.518,288.114 204.303,288.42 C203.321,289.986 201.664,291 199.545,291 C196.108,291 193.13,288.267 193.13,284.584 C193.13,280.963 196.169,278.107 199.576,278.107" id="Fill-29" fill="#DB9969"></path>
            <path d="M209.211,278.998 C209.211,278.69 209.488,278.414 209.795,278.414 L211.544,278.414 C211.852,278.414 212.127,278.69 212.127,278.998 L212.127,290.109 C212.127,290.417 211.852,290.693 211.544,290.693 L209.795,290.693 C209.488,290.693 209.211,290.417 209.211,290.109 L209.211,278.998 Z M208.874,271.631 C208.874,270.619 209.641,269.82 210.624,269.82 C211.636,269.82 212.434,270.619 212.434,271.631 C212.434,272.613 211.636,273.411 210.624,273.411 C209.641,273.411 208.874,272.613 208.874,271.631 Z" id="Fill-30" fill="#DB9969"></path>
            <path d="M223.237,288.36 C225.171,288.36 226.706,286.641 226.706,284.523 C226.706,282.466 225.171,280.778 223.237,280.778 C221.303,280.778 219.769,282.466 219.769,284.523 C219.769,286.641 221.303,288.36 223.237,288.36 Z M223.237,278.107 C226.675,278.107 229.438,281.053 229.438,284.523 C229.438,288.053 226.675,291 223.237,291 C219.799,291 217.037,288.053 217.037,284.523 C217.037,281.053 219.799,278.107 223.237,278.107 Z" id="Fill-31" fill="#DB9969"></path>
            <path d="M234.163,278.998 C234.163,278.69 234.439,278.414 234.746,278.414 L236.496,278.414 C236.802,278.414 237.078,278.69 237.078,278.998 L237.078,285.29 C237.078,287.285 238.03,288.36 239.595,288.36 C241.407,288.36 242.542,286.886 242.635,286.335 L242.635,278.998 C242.635,278.507 242.88,278.414 243.309,278.414 L244.905,278.414 C245.213,278.414 245.489,278.69 245.489,278.998 L245.489,290.109 C245.489,290.417 245.213,290.693 244.905,290.693 L244.046,290.693 C243.74,290.693 243.586,290.477 243.494,290.201 L243.186,289.312 C242.911,289.557 241.621,291 239.135,291 C235.451,291 234.163,288.39 234.163,285.198 L234.163,278.998" id="Fill-32" fill="#DB9969"></path>
            <path d="M250.581,289.096 L251.225,287.899 C251.348,287.653 251.686,287.562 251.993,287.746 C251.993,287.746 253.344,288.545 254.848,288.545 C255.768,288.545 256.351,288.175 256.351,287.5 C256.351,286.671 255.677,286.272 253.988,285.505 C252.085,284.676 250.489,283.509 250.489,281.484 C250.489,279.95 251.748,278.107 254.694,278.107 C256.413,278.107 257.702,278.66 258.316,279.059 C258.592,279.244 258.746,279.642 258.561,279.95 L258.01,280.993 C257.856,281.269 257.456,281.361 257.211,281.238 C257.211,281.238 255.86,280.594 254.694,280.594 C253.65,280.594 253.313,281.053 253.313,281.514 C253.313,282.313 254.081,282.651 255.277,283.173 C257.518,284.155 259.36,285.107 259.36,287.408 C259.36,289.312 257.549,291 254.817,291 C252.76,291 251.41,290.264 250.765,289.741 C250.581,289.618 250.458,289.342 250.581,289.096" id="Fill-33" fill="#DB9969"></path>
            <path d="M273.721,269.451 C273.721,269.145 273.997,268.9 274.304,268.9 L275.072,268.9 L288.392,284.308 L288.424,284.308 L288.424,269.789 C288.424,269.482 288.669,269.206 289.006,269.206 L290.971,269.206 C291.279,269.206 291.554,269.482 291.554,269.789 L291.554,290.447 C291.554,290.755 291.279,291 290.971,291 L290.174,291 L276.851,275.16 L276.821,275.16 L276.821,290.109 C276.821,290.417 276.575,290.693 276.237,290.693 L274.304,290.693 C273.997,290.693 273.721,290.417 273.721,290.109 L273.721,269.451" id="Fill-34" fill="#DB9969"></path>
            <path d="M297.689,278.998 C297.689,278.69 297.966,278.414 298.273,278.414 L300.022,278.414 C300.329,278.414 300.605,278.69 300.605,278.998 L300.605,285.29 C300.605,287.285 301.557,288.36 303.122,288.36 C304.933,288.36 306.069,286.886 306.161,286.335 L306.161,278.998 C306.161,278.507 306.406,278.414 306.837,278.414 L308.433,278.414 C308.739,278.414 309.016,278.69 309.016,278.998 L309.016,290.109 C309.016,290.417 308.739,290.693 308.433,290.693 L307.574,290.693 C307.266,290.693 307.113,290.477 307.02,290.201 L306.714,289.312 C306.437,289.557 305.148,291 302.662,291 C298.979,291 297.689,288.39 297.689,285.198 L297.689,278.998" id="Fill-35" fill="#DB9969"></path>
            <path d="M315.644,280.963 L314.354,280.963 C314.017,280.963 313.771,280.687 313.771,280.379 L313.771,278.998 C313.771,278.66 314.017,278.414 314.354,278.414 L315.644,278.414 L315.644,275.007 C315.644,274.701 315.92,274.423 316.227,274.423 L317.977,274.393 C318.283,274.393 318.528,274.669 318.528,274.977 L318.528,278.414 L321.66,278.414 C321.997,278.414 322.243,278.66 322.243,278.998 L322.243,280.379 C322.243,280.687 321.997,280.963 321.66,280.963 L318.528,280.963 L318.528,287.039 C318.528,288.084 318.928,288.267 319.511,288.267 C320.156,288.267 321.015,287.899 321.383,287.715 C321.783,287.531 321.966,287.715 322.089,287.991 L322.642,289.342 C322.795,289.68 322.673,289.926 322.366,290.079 C322.059,290.264 320.247,291 318.774,291 C316.349,291 315.644,289.527 315.644,287.347 L315.644,280.963" id="Fill-36" fill="#DB9969"></path>
            <path d="M327.305,278.998 C327.305,278.69 327.582,278.414 327.888,278.414 L328.778,278.414 C328.993,278.414 329.239,278.598 329.3,278.843 L329.638,279.888 C329.853,279.58 330.988,278.107 333.229,278.107 C334.396,278.107 335.808,278.414 335.471,279.244 L334.734,280.747 C334.58,281.085 334.273,281.146 333.997,281.023 C333.812,280.932 333.352,280.808 332.953,280.808 C331.173,280.808 330.314,282.098 330.191,282.313 L330.191,290.109 C330.191,290.63 329.853,290.693 329.362,290.693 L327.888,290.693 C327.582,290.693 327.305,290.417 327.305,290.109 L327.305,278.998" id="Fill-37" fill="#DB9969"></path>
            <path d="M339.459,278.998 C339.459,278.69 339.735,278.414 340.042,278.414 L341.792,278.414 C342.098,278.414 342.374,278.69 342.374,278.998 L342.374,290.109 C342.374,290.417 342.098,290.693 341.792,290.693 L340.042,290.693 C339.735,290.693 339.459,290.417 339.459,290.109 L339.459,278.998 Z M339.121,271.631 C339.121,270.619 339.888,269.82 340.87,269.82 C341.883,269.82 342.681,270.619 342.681,271.631 C342.681,272.613 341.883,273.411 340.87,273.411 C339.888,273.411 339.121,272.613 339.121,271.631 Z" id="Fill-38" fill="#DB9969"></path>
            <path d="M349.002,280.963 L347.714,280.963 C347.376,280.963 347.13,280.687 347.13,280.379 L347.13,278.998 C347.13,278.66 347.376,278.414 347.714,278.414 L349.002,278.414 L349.002,275.007 C349.002,274.701 349.279,274.423 349.586,274.423 L351.335,274.393 C351.643,274.393 351.888,274.669 351.888,274.977 L351.888,278.414 L355.018,278.414 C355.357,278.414 355.602,278.66 355.602,278.998 L355.602,280.379 C355.602,280.687 355.357,280.963 355.018,280.963 L351.888,280.963 L351.888,287.039 C351.888,288.084 352.287,288.267 352.871,288.267 C353.515,288.267 354.374,287.899 354.743,287.715 C355.141,287.531 355.326,287.715 355.449,287.991 L356.001,289.342 C356.155,289.68 356.032,289.926 355.725,290.079 C355.418,290.264 353.607,291 352.134,291 C349.709,291 349.002,289.527 349.002,287.347 L349.002,280.963" id="Fill-39" fill="#DB9969"></path>
            <path d="M360.665,278.998 C360.665,278.69 360.941,278.414 361.248,278.414 L362.998,278.414 C363.304,278.414 363.581,278.69 363.581,278.998 L363.581,290.109 C363.581,290.417 363.304,290.693 362.998,290.693 L361.248,290.693 C360.941,290.693 360.665,290.417 360.665,290.109 L360.665,278.998 Z M360.327,271.631 C360.327,270.619 361.094,269.82 362.076,269.82 C363.089,269.82 363.888,270.619 363.888,271.631 C363.888,272.613 363.089,273.411 362.076,273.411 C361.094,273.411 360.327,272.613 360.327,271.631 Z" id="Fill-40" fill="#DB9969"></path>
            <path d="M374.691,288.36 C376.624,288.36 378.159,286.641 378.159,284.523 C378.159,282.466 376.624,280.778 374.691,280.778 C372.757,280.778 371.222,282.466 371.222,284.523 C371.222,286.641 372.757,288.36 374.691,288.36 Z M374.691,278.107 C378.129,278.107 380.89,281.053 380.89,284.523 C380.89,288.053 378.129,291 374.691,291 C371.253,291 368.49,288.053 368.49,284.523 C368.49,281.053 371.253,278.107 374.691,278.107 Z" id="Fill-41" fill="#DB9969"></path>
            <path d="M385.8,278.998 C385.8,278.69 386.076,278.414 386.383,278.414 L387.273,278.414 C387.519,278.414 387.702,278.568 387.765,278.783 L388.133,279.826 C388.347,279.58 389.975,278.107 392.43,278.107 C396.174,278.107 397.556,280.747 397.556,283.94 L397.556,290.109 C397.556,290.417 397.279,290.693 396.973,290.693 L395.223,290.693 C394.886,290.693 394.64,290.417 394.64,290.109 L394.64,283.817 C394.64,281.852 393.688,280.778 392.092,280.778 C390.158,280.778 388.839,282.19 388.685,282.619 L388.685,290.109 C388.685,290.509 388.501,290.693 387.979,290.693 L386.383,290.693 C386.076,290.693 385.8,290.417 385.8,290.109 L385.8,278.998" id="Fill-42" fill="#DB9969"></path>
        </g>
    </g>
</svg>