<?xml version="1.0" encoding="UTF-8"?>
<svg width="400px" height="43px" viewBox="0 0 400 43" version="1.1" xmlns="http://www.w3.org/2000/svg" xmlns:xlink="http://www.w3.org/1999/xlink">
    <!-- Generator: Sketch 52.2 (67145) - http://www.bohemiancoding.com/sketch -->
    <title>logo-text</title>
    <desc>Created with Sketch.</desc>
    <g id="Logo" stroke="none" stroke-width="1" fill="none" fill-rule="evenodd">
        <g id="Lifelifting_logo_extended" transform="translate(0.000000, -212.000000)" fill="#DB9969">
            <g id="logo-text" transform="translate(0.000000, 212.000000)">
                <polyline id="Fill-4" points="0.256 41.29 0.256 1.338 8.508 1.338 8.508 33.268 29.719 33.268 29.719 41.29 0.256 41.29"></polyline>
                <polygon id="Fill-5" points="39.744 41.29 47.611 41.29 47.611 1.338 39.744 1.338"></polygon>
                <path d="M69.362,41.29 L61.495,41.29 L61.495,1.338 L91.42,1.338 L91.42,9.282 L69.362,9.282 L69.362,19 C71.11,17.972 73.05,17.329 75.184,17.072 C77.318,16.816 79.542,16.687 81.857,16.687 L86.175,16.687 L86.175,24.631 L81.857,24.631 C80.004,24.631 78.475,24.669 77.267,24.746 C76.059,24.824 75.017,24.939 74.143,25.093 C73.268,25.248 72.472,25.478 71.752,25.788 C71.032,26.095 70.235,26.482 69.362,26.944 L69.362,41.29" id="Fill-6"></path>
                <path d="M109.313,33.268 L134.378,33.268 L134.378,41.29 L101.446,41.29 L101.446,1.338 L132.914,1.338 L132.914,9.282 L109.313,9.282 L109.313,19 C111.06,17.972 113.001,17.329 115.135,17.072 C117.269,16.816 119.493,16.687 121.807,16.687 L127.669,16.687 L127.669,24.631 L121.807,24.631 C119.955,24.631 118.426,24.669 117.218,24.746 C116.009,24.824 114.968,24.939 114.093,25.093 C113.219,25.248 112.423,25.478 111.703,25.788 C110.983,26.095 110.186,26.482 109.313,26.944 L109.313,33.268" id="Fill-7"></path>
                <polyline id="Fill-8" points="146.333 41.29 146.333 1.338 154.585 1.338 154.585 33.268 175.796 33.268 175.796 41.29 146.333 41.29"></polyline>
                <polygon id="Fill-9" points="185.822 41.29 193.689 41.29 193.689 1.338 185.822 1.338"></polygon>
                <path d="M215.438,41.29 L207.571,41.29 L207.571,1.338 L237.496,1.338 L237.496,9.282 L215.438,9.282 L215.438,19 C217.185,17.972 219.126,17.329 221.26,17.072 C223.394,16.816 225.618,16.687 227.933,16.687 L232.251,16.687 L232.251,24.631 L227.933,24.631 C226.08,24.631 224.551,24.669 223.343,24.746 C222.135,24.824 221.093,24.939 220.219,25.093 C219.344,25.248 218.548,25.478 217.828,25.788 C217.108,26.095 216.311,26.482 215.438,26.944 L215.438,41.29" id="Fill-10"></path>
                <polyline id="Fill-11" points="265.338 9.282 265.338 41.29 257.394 41.29 257.394 9.282 242.894 9.282 242.894 1.338 280.378 1.338 280.378 9.282 265.338 9.282"></polyline>
                <polygon id="Fill-12" points="289.634 41.29 297.501 41.29 297.501 1.338 289.634 1.338"></polygon>
                <polyline id="Fill-13" points="317.861 1.338 342.002 29.104 342.002 1.338 349.946 1.338 349.946 41.29 342.002 41.29 319.789 15.298 319.789 41.29 311.845 41.29 311.845 7.277 307.911 1.338 317.861 1.338"></polyline>
                <path d="M400,36.817 C397.79,38.719 395.269,40.147 392.442,41.097 C389.614,42.048 386.658,42.524 383.573,42.524 C380.538,42.524 377.607,42.048 374.78,41.097 C371.951,40.147 369.446,38.758 367.26,36.932 C365.074,35.108 363.326,32.871 362.015,30.221 C360.704,27.575 360.049,24.554 360.049,21.16 C360.049,17.766 360.716,14.759 362.055,12.136 C363.39,9.514 365.165,7.304 367.375,5.503 C369.587,3.704 372.106,2.341 374.935,1.415 C377.762,0.49 380.667,0.026 383.65,0.026 C386.581,0.026 389.435,0.451 392.21,1.3 C394.987,2.149 397.481,3.395 399.692,5.041 L394.37,11.21 C392.879,10.182 391.195,9.397 389.318,8.858 C387.441,8.318 385.551,8.048 383.65,8.048 C381.695,8.048 379.818,8.318 378.019,8.858 C376.218,9.397 374.6,10.208 373.161,11.287 C371.721,12.367 370.577,13.743 369.728,15.413 C368.88,17.085 368.456,19.051 368.456,21.314 C368.456,23.578 368.892,25.53 369.767,27.176 C370.64,28.822 371.797,30.183 373.238,31.263 C374.677,32.344 376.309,33.153 378.134,33.693 C379.959,34.232 381.824,34.502 383.726,34.502 C386.708,34.502 389.512,33.808 392.134,32.421 L392.134,26.018 L388.046,26.018 L384.652,18.537 L400,18.537 L400,36.817" id="Fill-14"></path>
            </g>
        </g>
    </g>
</svg>