<?xml version="1.0" encoding="UTF-8"?>
<svg width="198px" height="169px" viewBox="0 0 198 169" version="1.1" xmlns="http://www.w3.org/2000/svg" xmlns:xlink="http://www.w3.org/1999/xlink">
    <!-- Generator: Sketch 52.2 (67145) - http://www.bohemiancoding.com/sketch -->
    <title>chat</title>
    <desc>Created with Sketch.</desc>
    <g id="icons" stroke="none" stroke-width="1" fill="none" fill-rule="evenodd">
        <g id="chat" fill="#2C2825">
            <path d="M160,91.3138686 L160,18.3439416 C160,8.23854015 151.77305,0 141.681864,0 L18.3181358,0 C8.22695035,0 0,8.23854015 0,18.3439416 L0,91.3138686 C0,101.41927 8.22695035,109.65781 18.3181358,109.65781 L23.5460993,109.65781 L23.5460993,131.654307 C23.5460993,135.712701 26.8287741,139 30.9219858,139 C33.029382,139 35.0557244,138.066569 36.4741641,136.443212 L59.6149949,109.617226 L141.722391,109.617226 C151.77305,109.65781 160,101.41927 160,91.3138686 Z M57.3049645,99.7147445 C55.845998,99.7147445 54.508612,100.323504 53.5359676,101.41927 L33.4346505,124.673869 L33.4346505,104.665985 C33.4346505,101.906277 31.2056738,99.6741606 28.449848,99.6741606 L18.3181358,99.6741606 C13.698075,99.6741606 9.92907801,95.899854 9.92907801,91.2732847 L9.92907801,18.3439416 C9.92907801,13.7173723 13.698075,9.94306569 18.3181358,9.94306569 L141.681864,9.94306569 C146.301925,9.94306569 150.070922,13.7173723 150.070922,18.3439416 L150.070922,91.3138686 C150.070922,95.940438 146.301925,99.7147445 141.681864,99.7147445 L57.3049645,99.7147445 Z" id="Shape" fill-rule="nonzero"></path>
            <path d="M161.805802,166.443958 C163.21492,168.107414 165.227946,169 167.281231,169 C168.126702,169 169.012433,168.837712 169.857904,168.513135 C172.756661,167.417688 174.608644,164.73993 174.608644,161.615879 L174.608644,139.625803 L179.80225,139.625803 C189.827117,139.625803 198,131.389667 198,121.287215 L198,48.3385873 C198,38.2361354 189.827117,30 179.80225,30 C177.064535,30 174.850207,32.2314653 174.850207,34.9497957 C174.850207,37.7086982 177.064535,39.9401635 179.80225,39.9401635 C184.391948,39.9401635 188.136175,43.7133684 188.136175,48.3385873 L188.136175,121.287215 C188.136175,125.912434 184.391948,129.685639 179.80225,129.685639 L169.696862,129.685639 C166.959147,129.685639 164.744819,131.917104 164.744819,134.676007 L164.744819,154.67805 L144.775607,131.430239 C143.849615,130.334793 142.480758,129.726211 141.03138,129.726211 L66.9520426,129.726211 C64.214328,129.726211 62,131.957677 62,134.716579 C62,137.475482 64.214328,139.706947 66.9520426,139.706947 L138.776791,139.706947 L161.805802,166.443958 Z" id="Path"></path>
            <circle id="Oval" cx="80" cy="57" r="6"></circle>
            <circle id="Oval" cx="100" cy="57" r="6"></circle>
            <circle id="Oval" cx="60" cy="57" r="6"></circle>
        </g>
    </g>
</svg>