<?xml version="1.0" encoding="UTF-8"?>
<svg width="469px" height="469px" viewBox="0 0 469 469" version="1.1" xmlns="http://www.w3.org/2000/svg" xmlns:xlink="http://www.w3.org/1999/xlink">
    <!-- Generator: Sketch 52.2 (67145) - http://www.bohemiancoding.com/sketch -->
    <title>Group</title>
    <desc>Created with Sketch.</desc>
    <g id="Page-1" stroke="none" stroke-width="1" fill="none" fill-rule="evenodd">
        <g id="Group" transform="translate(1.000000, 1.000000)" fill-rule="nonzero">
            <circle id="Oval" stroke="#979797" fill="#F4E0D2" cx="233.5" cy="233.5" r="233.5"></circle>
            <g id="user-astronaut-solid" transform="translate(89.000000, 100.000000)" fill="#DB9969">
                <path d="M41.4285714,146.095385 L50.1674107,146.095385 C66.15625,182.945337 102.535714,208.707692 145,208.707692 C187.464286,208.707692 223.84375,182.945337 239.832589,146.095385 L248.571429,146.095385 C254.267857,146.095385 258.928571,141.399462 258.928571,135.66 L258.928571,73.0476923 C258.928571,67.3082308 254.267857,62.6123077 248.571429,62.6123077 L239.832589,62.6123077 C223.84375,25.7623558 187.464286,0 145,0 C102.535714,0 66.15625,25.7623558 50.1674107,62.6123077 L41.4285714,62.6123077 C35.7321429,62.6123077 31.0714286,67.3082308 31.0714286,73.0476923 L31.0714286,135.66 C31.0714286,141.399462 35.7321429,146.095385 41.4285714,146.095385 Z M67.3214286,88.7007692 C67.3214286,74.2868942 81.2388393,62.6123077 98.3928571,62.6123077 L191.607143,62.6123077 C208.761161,62.6123077 222.678571,74.2868942 222.678571,88.7007692 L222.678571,104.353846 C222.678571,138.921058 194.84375,166.966154 160.535714,166.966154 L129.464286,166.966154 C95.15625,166.966154 67.3214286,138.921058 67.3214286,104.353846 L67.3214286,88.7007692 Z M113.928571,135.66 L121.696429,112.180385 L145,104.353846 L121.696429,96.5273077 L113.928571,73.0476923 L106.160714,96.5273077 L82.8571429,104.353846 L106.160714,112.180385 L113.928571,135.66 Z M212.0625,209.620788 C192.707589,222.208471 169.727679,229.578462 145,229.578462 C120.272321,229.578462 97.2924107,222.208471 77.9375,209.620788 C34.2433036,214.25149 0,251.101442 0,296.364923 L0,302.626154 C0,316.045671 8.39003051,327.499279 20.1707642,331.949883 C21.808544,332.568614 31.8944966,340.118853 46.1363636,346.015385 C61.3925866,352.331888 80.8736453,357 82.8571429,357 L82.8571429,333.932308 L82.8571429,292.190769 C82.8571429,280.646625 92.1138393,271.32 103.571429,271.32 L186.428571,271.32 C197.886161,271.32 207.142857,280.646625 207.142857,292.190769 L207.142857,333.932308 L207.142857,357 C209.67605,357 225.988253,352.525997 241.666667,346.015385 C256.436741,339.881969 270.630925,331.721921 272.636875,330.72612 C282.920679,325.620997 290,314.952971 290,302.626154 L290,296.364923 C290,251.101442 255.756696,214.25149 212.0625,209.620788 Z M176.071429,292.190769 C170.375,292.190769 165.714286,296.886692 165.714286,302.626154 C165.714286,308.365615 170.375,313.061538 176.071429,313.061538 C181.767857,313.061538 186.428571,308.365615 186.428571,302.626154 C186.428571,296.886692 181.767857,292.190769 176.071429,292.190769 Z M113.928571,292.190769 C108.232143,292.190769 103.571429,296.886692 103.571429,302.626154 L103.571429,333.932308 L124.285714,333.932308 L124.285714,302.626154 C124.285714,296.886692 119.625,292.190769 113.928571,292.190769 Z" id="Shape"></path>
            </g>
        </g>
    </g>
</svg>