<?xml version="1.0" standalone="no"?>
<!DOCTYPE svg PUBLIC "-//W3C//DTD SVG 20010904//EN"
 "http://www.w3.org/TR/2001/REC-SVG-20010904/DTD/svg10.dtd">
<svg version="1.0" xmlns="http://www.w3.org/2000/svg"
 width="512.000000pt" height="512.000000pt" viewBox="0 0 512.000000 512.000000"
 preserveAspectRatio="xMidYMid meet">
<metadata>
Created by potrace 1.11, written by Peter Selinger 2001-2013
</metadata>
<g transform="translate(0.000000,512.000000) scale(0.100000,-0.100000)"
fill="#000000" stroke="none">
<path d="M3345 4444 c-167 -30 -329 -88 -481 -176 -90 -51 -254 -167 -254
-180 0 -8 124 -118 134 -118 3 0 48 28 99 63 242 166 469 241 721 239 377 -3
703 -201 876 -533 64 -124 110 -260 125 -373 2 -17 7 -53 11 -81 15 -110 6
-306 -20 -430 -63 -296 -226 -604 -495 -930 -267 -325 -705 -707 -1191 -1037
-118 -81 -305 -198 -315 -198 -8 0 -155 92 -283 178 l-114 75 -56 -14 c-31 -8
-94 -14 -139 -14 -63 0 -80 -2 -70 -11 61 -58 605 -408 651 -420 53 -13 593
346 936 622 118 95 126 102 245 207 105 94 344 332 416 417 35 41 67 77 70 80
20 16 206 274 254 351 113 183 210 402 254 574 39 155 46 216 45 415 -1 152
-4 188 -39 365 -12 61 -69 212 -110 295 -164 325 -451 545 -817 626 -99 22
-348 26 -453 8z"/>
<path d="M1302 4435 c-421 -75 -739 -357 -880 -780 -26 -79 -36 -116 -57 -225
-20 -98 -27 -388 -13 -500 47 -369 249 -772 587 -1165 141 -165 373 -392 566
-555 55 -47 109 -93 119 -102 29 -27 175 -94 231 -108 69 -16 177 -14 243 6
237 68 402 364 398 714 l-1 103 -68 27 c-37 16 -83 40 -103 55 l-35 27 8 -39
c4 -21 8 -103 8 -183 -1 -119 -5 -159 -23 -223 -31 -109 -66 -172 -127 -234
-92 -91 -201 -103 -337 -39 -43 20 -218 150 -238 176 -3 4 -30 28 -60 55 -277
241 -557 560 -715 817 -134 215 -233 459 -260 638 -16 110 -21 164 -19 240 12
518 227 893 604 1053 366 155 844 53 1265 -268 18 -15 18 -16 -22 -58 -111
-115 -188 -236 -230 -360 -33 -97 -38 -134 -37 -257 1 -204 80 -387 253 -588
l60 -69 -43 -42 -43 -43 20 -41 c11 -23 28 -61 38 -85 l19 -44 48 38 c26 22
57 49 68 61 12 13 24 23 26 23 3 0 23 -16 44 -36 22 -20 67 -56 102 -81 34
-25 62 -47 62 -50 0 -16 -66 -126 -93 -153 -44 -45 -77 -60 -123 -54 -75 9
-146 90 -203 231 -82 200 -160 324 -285 449 -100 99 -192 160 -302 198 -241
84 -510 36 -809 -144 l-84 -51 16 -37 c146 -353 351 -564 618 -638 67 -18 253
-27 312 -14 21 5 54 11 74 14 43 6 199 61 251 87 21 11 41 19 45 19 4 0 21
-24 36 -54 54 -103 170 -210 259 -237 18 -6 60 -10 94 -10 l61 1 -8 -47 c-8
-51 -5 -258 5 -308 37 -187 96 -319 182 -410 48 -50 127 -106 144 -102 20 5
191 129 186 134 -2 2 -17 6 -34 8 -257 32 -390 495 -249 865 121 318 209 475
336 600 178 176 389 222 636 138 52 -18 173 -72 183 -83 2 -2 -13 -33 -33 -70
-131 -234 -323 -365 -537 -366 -96 0 -207 20 -298 56 -35 14 -67 25 -70 25 -6
0 -49 -88 -69 -141 -9 -26 -8 -27 57 -52 37 -14 85 -30 107 -36 22 -6 42 -11
45 -12 90 -25 257 -32 359 -15 104 17 237 81 334 161 128 105 232 259 327 481
l18 41 -52 33 c-82 54 -245 134 -325 159 -244 77 -455 57 -654 -60 -120 -70
-258 -220 -363 -397 l-20 -32 -65 53 c-99 83 -259 245 -319 324 -74 96 -121
189 -146 287 -40 156 -6 320 99 476 45 67 137 170 151 170 28 0 158 -165 207
-263 106 -210 73 -443 -96 -664 -30 -40 -55 -75 -55 -78 0 -7 122 -125 129
-124 11 1 92 108 137 181 94 154 135 296 130 453 -7 227 -95 406 -295 605
-122 121 -146 141 -259 223 -237 170 -472 270 -752 322 -69 13 -324 13 -398 0z
m326 -1629 c168 -35 323 -161 445 -361 20 -33 37 -63 37 -67 0 -12 -210 -89
-282 -104 -288 -60 -520 55 -687 341 -23 38 -41 72 -41 76 0 13 183 90 257
108 101 23 182 26 271 7z"/>
</g>
</svg>
